<?xml version="1.0" encoding="utf-8"?>
<!-- Generator: Adobe Illustrator 19.0.0, SVG Export Plug-In . SVG Version: 6.00 Build 0)  -->
<svg xmlns="http://www.w3.org/2000/svg" xmlns:xlink="http://www.w3.org/1999/xlink" version="1.1" id="Layer_1" x="0px" y="0px" viewBox="0 2 98 98" style="enable-background:new 0 2 98 98;" xml:space="preserve" width="512" height="512">
<style type="text/css">
	.st0{fill:url(#SVGID_1_);}
</style>
<linearGradient id="SVGID_1_" gradientUnits="userSpaceOnUse" x1="49" y1="19.5" x2="49" y2="82.5">
	<stop offset="0" style="stop-color:#00EFD1"/>
	<stop offset="1" style="stop-color:#00ACEA"/>
</linearGradient>
<path class="st0" d="M93.2,45.1L81.3,21.2c-0.5-1-1.5-1.7-2.7-1.7H19.4c-1.1,0-2.2,0.6-2.7,1.7L4.8,45.1c-0.2,0.4-0.3,0.9-0.3,1.3  v33.1c0,1.7,1.3,3,3,3h83c1.7,0,3-1.3,3-3V46.4C93.5,45.9,93.4,45.5,93.2,45.1z M21.3,25.5h55.5l9,18H66.3c-1.4,0-2.6,1-2.9,2.4  c-0.1,0.5-2.8,12.4-14.9,12.4c-12.1,0-14.8-11.9-14.9-12.4c-0.3-1.4-1.5-2.4-2.9-2.4H12.3L21.3,25.5z M87.5,76.5h-77v-27h17.9  c2.1,6.1,8.1,14.8,20.1,14.8c12,0,18-8.7,20.1-14.8h18.9V76.5z"/>
</svg>
